<svg width="26" height="26" viewBox="0 0 26 26" fill="none" xmlns="http://www.w3.org/2000/svg">
<path d="M19 8.83325C19 7.17565 18.3415 5.58594 17.1694 4.41383C15.9973 3.24173 14.4076 2.58325 12.75 2.58325C11.0924 2.58325 9.50268 3.24173 8.33058 4.41383C7.15848 5.58594 6.5 7.17565 6.5 8.83325C6.5 16.1249 3.375 18.2083 3.375 18.2083H22.125C22.125 18.2083 19 16.1249 19 8.83325Z" stroke="white" stroke-width="2" stroke-linecap="round" stroke-linejoin="round"/>
<path d="M14.5522 22.375C14.369 22.6907 14.1062 22.9528 13.7899 23.1349C13.4736 23.3171 13.1151 23.413 12.7501 23.413C12.3851 23.413 12.0265 23.3171 11.7103 23.1349C11.394 22.9528 11.1311 22.6907 10.948 22.375" stroke="white" stroke-width="2" stroke-linecap="round" stroke-linejoin="round"/>
</svg>
