<svg width="39" height="39" viewBox="0 0 39 39" fill="none" xmlns="http://www.w3.org/2000/svg">
<path d="M9.9999 23.75L8.8374 23.2875C8.75434 23.4965 8.7292 23.724 8.76464 23.9461C8.80007 24.1682 8.89477 24.3766 9.03875 24.5494C9.18272 24.7222 9.37065 24.8529 9.58271 24.9278C9.79476 25.0027 10.0231 25.019 10.2437 24.975L9.9999 23.75ZM15.8824 22.58L16.4749 21.4788L16.0787 21.2663L15.6387 21.3538L15.8824 22.58ZM12.0299 18.6462L13.1924 19.1087L13.3962 18.5913L13.1512 18.0925L12.0299 18.6462ZM28.7499 15C28.7499 19.0575 25.1837 22.5 20.5874 22.5V25C26.3887 25 31.2499 20.6075 31.2499 15H28.7499ZM12.4262 15C12.4262 10.9425 15.9937 7.5 20.5887 7.5V5C14.7874 5 9.9249 9.3925 9.9249 15H12.4262ZM20.5887 7.5C25.1837 7.5 28.7499 10.9425 28.7499 15H31.2499C31.2499 9.3925 26.3899 5 20.5887 5V7.5ZM20.5874 22.5C19.0812 22.5 17.6787 22.125 16.4749 21.4788L15.2899 23.68C16.9191 24.5534 18.7389 25.007 20.5874 25V22.5ZM10.2437 24.975L16.1262 23.805L15.6387 21.3538L9.75615 22.5237L10.2437 24.9763V24.975ZM13.1512 18.0925C12.6753 17.1309 12.428 16.0729 12.4262 15H9.9249C9.9249 16.5 10.2774 17.9225 10.9074 19.2L13.1512 18.0925ZM10.8687 18.1838L8.8374 23.2887L11.1599 24.2113L13.1899 19.1075L10.8674 18.1838H10.8687Z" fill="black"/>
<path d="M16.25 16.25C16.9404 16.25 17.5 15.6904 17.5 15C17.5 14.3096 16.9404 13.75 16.25 13.75C15.5596 13.75 15 14.3096 15 15C15 15.6904 15.5596 16.25 16.25 16.25Z" fill="black"/>
<path d="M20.625 16.25C21.3154 16.25 21.875 15.6904 21.875 15C21.875 14.3096 21.3154 13.75 20.625 13.75C19.9346 13.75 19.375 14.3096 19.375 15C19.375 15.6904 19.9346 16.25 20.625 16.25Z" fill="black"/>
<path d="M25 16.25C25.6904 16.25 26.25 15.6904 26.25 15C26.25 14.3096 25.6904 13.75 25 13.75C24.3096 13.75 23.75 14.3096 23.75 15C23.75 15.6904 24.3096 16.25 25 16.25Z" fill="black"/>
<path d="M14.2841 36L17.1552 27.5156H19.7977L22.6747 36H20.5302L18.5145 29.6133H18.4442L16.4286 36H14.2841ZM20.7645 32.6543V34.1836H16.1649V32.6543H20.7645ZM25.3292 36H23.337V27.5156H25.3292V36Z" fill="black"/>
</svg>
