<svg width="25" height="24" viewBox="0 0 25 24" fill="none" xmlns="http://www.w3.org/2000/svg">
<path d="M4.96779 8.00918L8.33028 10.8367L11.326 7.31159C11.4099 7.21304 11.516 7.13385 11.6363 7.07991C11.7567 7.02597 11.8882 6.99867 12.0212 7.00005C12.1541 7.00143 12.285 7.03145 12.4041 7.08788C12.5232 7.1443 12.6274 7.22568 12.709 7.32595L15.5678 10.8359L19.039 7.9678C19.1753 7.8554 19.3443 7.78547 19.5233 7.76737C19.7024 7.74928 19.8829 7.78387 20.0408 7.86654C20.1987 7.9492 20.3265 8.07598 20.4069 8.22992C20.4873 8.38385 20.5167 8.55759 20.4909 8.72789L19.1654 17.4664H4.85556L3.50968 8.76758C3.48294 8.59634 3.51192 8.42138 3.5927 8.2664C3.67348 8.11143 3.80214 7.98392 3.96127 7.90115C4.12039 7.81839 4.30229 7.78436 4.48233 7.80369C4.66236 7.82301 4.83183 7.89475 4.96779 8.00918ZM4.92449 18.3109H19.0638V19.1555C19.0638 19.3794 18.9706 19.5943 18.8049 19.7526C18.6392 19.911 18.4144 20 18.18 20H5.80819C5.57382 20 5.34904 19.911 5.18332 19.7526C5.01759 19.5943 4.92449 19.3794 4.92449 19.1555V18.3109Z" fill="white"/>
</svg>
