<svg width="100" height="19" viewBox="0 0 100 19" fill="none" xmlns="http://www.w3.org/2000/svg">
<path d="M1.77002 17.9199V14.3677H6.31104C7.36084 14.3677 8.22754 14.1886 8.91113 13.8306C9.60286 13.4725 10.1237 12.9028 10.4736 12.1216C10.8317 11.3403 11.0107 10.3271 11.0107 9.08203C11.0107 7.82064 10.8317 6.79932 10.4736 6.01807C10.1237 5.23682 9.5988 4.67122 8.89893 4.32129C8.20719 3.97135 7.33236 3.79639 6.27441 3.79639H1.69678V0.244141H6.46973C8.26823 0.244141 9.81852 0.598145 11.1206 1.30615C12.4308 2.01416 13.4359 3.03141 14.1357 4.35791C14.8356 5.68441 15.1855 7.25911 15.1855 9.08203C15.1855 10.9049 14.8356 12.4797 14.1357 13.8062C13.4359 15.1326 12.4308 16.1499 11.1206 16.8579C9.81038 17.5659 8.26009 17.9199 6.46973 17.9199H1.77002ZM4.15039 17.9199H0V0.244141H4.15039V17.9199ZM15.2959 17.9199L21.2773 0.244141H26.7827L32.7764 17.9199H28.3086L24.1094 4.61426H23.9629L19.7637 17.9199H15.2959ZM28.7969 10.9497V14.1357H19.2144V10.9497H28.7969ZM34.1562 0.244141H41.3828C42.7093 0.244141 43.8527 0.484212 44.813 0.964355C45.7814 1.43636 46.522 2.11589 47.0347 3.00293C47.5555 3.88184 47.8159 4.91943 47.8159 6.11572C47.8159 7.30387 47.5514 8.32926 47.0225 9.19189C46.5016 10.0545 45.7448 10.7096 44.752 11.1572C43.7673 11.6048 42.6035 11.8286 41.2607 11.8286H36.6221V8.52051H40.5161C41.1834 8.52051 41.7327 8.43506 42.1641 8.26416C42.6035 8.08512 42.9372 7.82064 43.165 7.4707C43.3929 7.11263 43.5068 6.66097 43.5068 6.11572C43.5068 5.5542 43.3929 5.09033 43.165 4.72412C42.9372 4.35791 42.5994 4.08122 42.1519 3.89404C41.7124 3.70687 41.1631 3.61328 40.5039 3.61328H38.3066V17.9199H34.1562V0.244141ZM48.4263 17.9199H43.8486L39.564 9.85107H44.0195L48.4263 17.9199ZM49.0371 0.244141H63.9053V3.6377H58.522V17.9199H54.4204V3.6377H49.0371V0.244141ZM81.2642 9.08203C81.2642 10.9701 80.8979 12.5977 80.1655 13.9648C79.4331 15.332 78.4321 16.3737 77.1626 17.0898C75.8931 17.806 74.4567 18.1641 72.8535 18.1641C71.2585 18.1641 69.8221 17.806 68.5444 17.0898C67.2749 16.3737 66.2739 15.328 65.5415 13.9526C64.8172 12.5773 64.4551 10.9538 64.4551 9.08203C64.4551 7.17773 64.8172 5.54199 65.5415 4.1748C66.2739 2.80762 67.2749 1.77002 68.5444 1.06201C69.8221 0.354004 71.2585 0 72.8535 0C74.4567 0 75.8931 0.354004 77.1626 1.06201C78.4321 1.77002 79.4331 2.80762 80.1655 4.1748C80.8979 5.54199 81.2642 7.17773 81.2642 9.08203ZM77.0161 9.08203C77.0161 7.91829 76.8493 6.93359 76.5156 6.12793C76.1901 5.31413 75.714 4.69971 75.0874 4.28467C74.4689 3.86149 73.7243 3.6499 72.8535 3.6499C71.9909 3.6499 71.2463 3.86149 70.6196 4.28467C70.0011 4.69971 69.5251 5.31413 69.1914 6.12793C68.8659 6.93359 68.7031 7.91829 68.7031 9.08203C68.7031 10.2458 68.8659 11.2345 69.1914 12.0483C69.5251 12.854 70.0011 13.4684 70.6196 13.8916C71.2463 14.3066 71.9909 14.5142 72.8535 14.5142C73.7243 14.5142 74.4689 14.3066 75.0874 13.8916C75.714 13.4684 76.1901 12.854 76.5156 12.0483C76.8493 11.2345 77.0161 10.2458 77.0161 9.08203ZM99.8071 9.08203C99.8071 10.9701 99.4409 12.5977 98.7085 13.9648C97.9761 15.332 96.9751 16.3737 95.7056 17.0898C94.436 17.806 92.9997 18.1641 91.3965 18.1641C89.8014 18.1641 88.3651 17.806 87.0874 17.0898C85.8179 16.3737 84.8169 15.328 84.0845 13.9526C83.3602 12.5773 82.998 10.9538 82.998 9.08203C82.998 7.17773 83.3602 5.54199 84.0845 4.1748C84.8169 2.80762 85.8179 1.77002 87.0874 1.06201C88.3651 0.354004 89.8014 0 91.3965 0C92.9997 0 94.436 0.354004 95.7056 1.06201C96.9751 1.77002 97.9761 2.80762 98.7085 4.1748C99.4409 5.54199 99.8071 7.17773 99.8071 9.08203ZM95.5591 9.08203C95.5591 7.91829 95.3923 6.93359 95.0586 6.12793C94.7331 5.31413 94.257 4.69971 93.6304 4.28467C93.0119 3.86149 92.2673 3.6499 91.3965 3.6499C90.5339 3.6499 89.7892 3.86149 89.1626 4.28467C88.5441 4.69971 88.068 5.31413 87.7344 6.12793C87.4089 6.93359 87.2461 7.91829 87.2461 9.08203C87.2461 10.2458 87.4089 11.2345 87.7344 12.0483C88.068 12.854 88.5441 13.4684 89.1626 13.8916C89.7892 14.3066 90.5339 14.5142 91.3965 14.5142C92.2673 14.5142 93.0119 14.3066 93.6304 13.8916C94.257 13.4684 94.7331 12.854 95.0586 12.0483C95.3923 11.2345 95.5591 10.2458 95.5591 9.08203Z" fill="black"/>
</svg>
