<svg width="99" height="19" viewBox="0 0 99 19" fill="none" xmlns="http://www.w3.org/2000/svg">
<path d="M0.131152 18V0.249999H6.75615C8.70615 0.249999 10.3312 0.649999 11.6312 1.45C12.9478 2.23333 13.9395 3.3 14.6062 4.65C15.2728 5.98333 15.6062 7.46667 15.6062 9.1C15.6062 10.9 15.2395 12.4667 14.5062 13.8C13.7728 15.1333 12.7395 16.1667 11.4062 16.9C10.0895 17.6333 8.53949 18 6.75615 18H0.131152ZM11.4312 9.1C11.4312 8.06667 11.2478 7.15833 10.8812 6.375C10.5145 5.575 9.98115 4.95833 9.28115 4.525C8.58115 4.075 7.73949 3.85 6.75615 3.85H4.23115V14.4H6.75615C7.75615 14.4 8.59782 14.175 9.28115 13.725C9.98115 13.2583 10.5145 12.625 10.8812 11.825C11.2478 11.0083 11.4312 10.1 11.4312 9.1ZM21.2937 0.249999H25.7187L31.8187 18H27.6187L26.2437 14.025H20.7187L19.3687 18H15.1687L21.2937 0.249999ZM25.5687 11.2L23.4937 4.375L21.3687 11.2H25.5687ZM33.0667 18V0.249999H41.0667C41.9 0.249999 42.6667 0.424999 43.3667 0.775C44.0834 1.10833 44.7 1.56667 45.2167 2.15C45.7334 2.71667 46.1334 3.35833 46.4167 4.075C46.7167 4.79167 46.8667 5.51667 46.8667 6.25C46.8667 6.98333 46.75 7.68333 46.5167 8.35C46.2834 9 45.95 9.59167 45.5167 10.125C45.0834 10.6417 44.5667 11.0667 43.9667 11.4L47.8667 18H43.3417L39.9417 12.275H37.1667V18H33.0667ZM37.1667 8.7H40.9167C41.25 8.7 41.5417 8.6 41.7917 8.4C42.0584 8.18333 42.275 7.89167 42.4417 7.525C42.6084 7.15833 42.6917 6.73333 42.6917 6.25C42.6917 5.76667 42.5917 5.35 42.3917 5C42.2084 4.63333 41.975 4.35 41.6917 4.15C41.4084 3.95 41.1084 3.85 40.7917 3.85H37.1667V8.7ZM62.62 3.85H57.22V18H53.12V3.85H47.695V0.249999H62.62V3.85ZM71.5556 18.15C70.2222 18.15 69.0139 17.9 67.9306 17.4C66.8639 16.8833 65.9389 16.2 65.1556 15.35C64.3889 14.4833 63.7972 13.5167 63.3806 12.45C62.9639 11.3667 62.7556 10.25 62.7556 9.1C62.7556 7.91667 62.9722 6.79167 63.4056 5.725C63.8556 4.65833 64.4722 3.70833 65.2556 2.875C66.0556 2.025 66.9972 1.35833 68.0806 0.874998C69.1639 0.391665 70.3472 0.149999 71.6306 0.149999C72.9472 0.149999 74.1389 0.408332 75.2056 0.924999C76.2889 1.425 77.2139 2.10833 77.9806 2.975C78.7639 3.84167 79.3639 4.81667 79.7806 5.9C80.1972 6.96667 80.4056 8.05833 80.4056 9.175C80.4056 10.3583 80.1889 11.4833 79.7556 12.55C79.3222 13.6167 78.7056 14.575 77.9056 15.425C77.1056 16.2583 76.1639 16.925 75.0806 17.425C74.0139 17.9083 72.8389 18.15 71.5556 18.15ZM66.9306 9.15C66.9306 9.83333 67.0306 10.5 67.2306 11.15C67.4306 11.7833 67.7222 12.35 68.1056 12.85C68.5056 13.35 68.9972 13.75 69.5806 14.05C70.1639 14.35 70.8306 14.5 71.5806 14.5C72.3639 14.5 73.0472 14.35 73.6306 14.05C74.2139 13.7333 74.6972 13.3167 75.0806 12.8C75.4639 12.2833 75.7472 11.7083 75.9306 11.075C76.1306 10.425 76.2306 9.76667 76.2306 9.1C76.2306 8.41667 76.1306 7.75833 75.9306 7.125C75.7306 6.49167 75.4306 5.925 75.0306 5.425C74.6306 4.90833 74.1389 4.50833 73.5556 4.225C72.9722 3.94167 72.3139 3.8 71.5806 3.8C70.7972 3.8 70.1139 3.95 69.5306 4.25C68.9639 4.55 68.4806 4.95833 68.0806 5.475C67.6972 5.975 67.4056 6.55 67.2056 7.2C67.0222 7.83333 66.9306 8.48333 66.9306 9.15ZM90.0497 18.15C88.7164 18.15 87.508 17.9 86.4247 17.4C85.358 16.8833 84.433 16.2 83.6497 15.35C82.883 14.4833 82.2914 13.5167 81.8747 12.45C81.458 11.3667 81.2497 10.25 81.2497 9.1C81.2497 7.91667 81.4664 6.79167 81.8997 5.725C82.3497 4.65833 82.9664 3.70833 83.7497 2.875C84.5497 2.025 85.4914 1.35833 86.5747 0.874998C87.658 0.391665 88.8414 0.149999 90.1247 0.149999C91.4414 0.149999 92.633 0.408332 93.6997 0.924999C94.783 1.425 95.708 2.10833 96.4747 2.975C97.258 3.84167 97.858 4.81667 98.2747 5.9C98.6914 6.96667 98.8997 8.05833 98.8997 9.175C98.8997 10.3583 98.683 11.4833 98.2497 12.55C97.8164 13.6167 97.1997 14.575 96.3997 15.425C95.5997 16.2583 94.658 16.925 93.5747 17.425C92.508 17.9083 91.333 18.15 90.0497 18.15ZM85.4247 9.15C85.4247 9.83333 85.5247 10.5 85.7247 11.15C85.9247 11.7833 86.2164 12.35 86.5997 12.85C86.9997 13.35 87.4914 13.75 88.0747 14.05C88.658 14.35 89.3247 14.5 90.0747 14.5C90.858 14.5 91.5414 14.35 92.1247 14.05C92.708 13.7333 93.1914 13.3167 93.5747 12.8C93.958 12.2833 94.2414 11.7083 94.4247 11.075C94.6247 10.425 94.7247 9.76667 94.7247 9.1C94.7247 8.41667 94.6247 7.75833 94.4247 7.125C94.2247 6.49167 93.9247 5.925 93.5247 5.425C93.1247 4.90833 92.633 4.50833 92.0497 4.225C91.4664 3.94167 90.808 3.8 90.0747 3.8C89.2914 3.8 88.608 3.95 88.0247 4.25C87.458 4.55 86.9747 4.95833 86.5747 5.475C86.1914 5.975 85.8997 6.55 85.6997 7.2C85.5164 7.83333 85.4247 8.48333 85.4247 9.15Z" fill="black"/>
</svg>
