<svg width="26" height="26" viewBox="0 0 26 26" fill="none" xmlns="http://www.w3.org/2000/svg">
<path d="M19.0837 19.7389C21.1898 17.7732 22.1258 14.4971 21.5642 11.3614H13.1866V14.8247H17.9604C17.7732 15.948 17.118 16.884 16.182 17.4924L19.0837 19.7389Z" fill="#4285F4"/>
<path d="M5.23035 16.9776C5.30704 17.1286 5.3879 17.2773 5.47292 17.4237C5.55802 17.5702 5.64714 17.7141 5.74031 17.8555C5.83354 17.9968 5.93061 18.1355 6.03165 18.2714C6.13269 18.4073 6.23744 18.5402 6.34604 18.6702C6.45457 18.8001 6.56667 18.927 6.68243 19.0506C6.79812 19.1742 6.91726 19.2945 7.03979 19.4114C7.16231 19.5283 7.28803 19.6416 7.41694 19.7514C7.54584 19.8612 7.67774 19.9673 7.8127 20.0696C7.9476 20.172 8.08529 20.2704 8.22579 20.3649C8.36628 20.4595 8.50932 20.55 8.65496 20.6364C8.80053 20.7229 8.94845 20.8052 9.09871 20.8833C9.24897 20.9613 9.40131 21.0352 9.55574 21.1046C9.71016 21.1741 9.86641 21.2392 10.0246 21.2998C10.1826 21.3605 10.3423 21.4166 10.5036 21.4682C10.6649 21.5199 10.8275 21.5669 10.9914 21.6093C11.1553 21.6518 11.3203 21.6895 11.4864 21.7227C11.6525 21.7557 11.8193 21.7841 11.9871 21.8078C12.1547 21.8315 12.3229 21.8504 12.4917 21.8645C12.6604 21.8787 12.8294 21.8881 12.9987 21.8927C13.168 21.8973 13.3372 21.8971 13.5065 21.8921C13.6758 21.8872 13.8447 21.8774 14.0135 21.8629C14.1822 21.8484 14.3503 21.8291 14.518 21.8051C14.6856 21.7811 14.8524 21.7523 15.0184 21.7188C15.1844 21.6854 15.3494 21.6473 15.5132 21.6045C15.677 21.5617 15.8395 21.5143 16.0007 21.4624C16.1619 21.4104 16.3214 21.3539 16.4794 21.2929C16.6374 21.2319 16.7935 21.1666 16.9478 21.0967C17.1021 21.0269 17.2542 20.9528 17.4043 20.8744C17.5544 20.796 17.7022 20.7134 17.8476 20.6266C17.993 20.5398 18.1358 20.449 18.2761 20.3542C18.4164 20.2593 18.5539 20.1606 18.6886 20.058C18.8233 19.9554 18.955 19.849 19.0837 19.7389L16.182 17.4925C13.7015 19.1305 9.58295 18.5221 8.17885 14.6843L5.23035 16.9776Z" fill="#34A853"/>
<path d="M8.17884 14.6843C7.80443 13.5143 7.80443 12.4378 8.17884 11.2678L5.23034 8.97449C4.15391 11.1274 3.8263 14.1695 5.23034 16.9776L8.17884 14.6843Z" fill="#FBBC02"/>
<path d="M8.17885 11.2678C9.20854 8.0385 13.6079 6.16643 16.5564 8.92769L19.1305 6.40041C15.48 2.89032 8.36609 3.03069 5.23035 8.9745L8.17885 11.2678Z" fill="#EA4335"/>
</svg>
