<svg width="26" height="26" viewBox="0 0 26 26" fill="none" xmlns="http://www.w3.org/2000/svg">
<g clip-path="url(#clip0_500_1656)">
<path d="M25.5 23.5469C25.5 24.6256 24.6256 25.5 23.5469 25.5H2.45312C1.37441 25.5 0.5 24.6256 0.5 23.5469V2.45312C0.5 1.37441 1.37441 0.5 2.45312 0.5H23.5469C24.6256 0.5 25.5 1.37441 25.5 2.45312V23.5469Z" fill="#FFE812"/>
<path d="M13 4.01562C7.39082 4.01562 2.84375 7.60088 2.84375 12.0234C2.84375 14.8827 4.74473 17.3916 7.6043 18.8083C7.44873 19.3448 6.60459 22.2599 6.571 22.4889C6.571 22.4889 6.55078 22.6609 6.66221 22.7266C6.77363 22.7922 6.90469 22.7412 6.90469 22.7412C7.22422 22.6966 10.6101 20.3183 11.1961 19.9053C11.7815 19.9882 12.3844 20.0312 13 20.0312C18.6092 20.0312 23.1562 16.4461 23.1562 12.0234C23.1562 7.60088 18.6092 4.01562 13 4.01562Z" fill="black"/>
<path d="M7.38477 14.8188C7.06162 14.8188 6.79883 14.5679 6.79883 14.2593V10.7783H5.88457C5.56748 10.7783 5.30957 10.5209 5.30957 10.2046C5.30957 9.88828 5.56758 9.63086 5.88457 9.63086H8.88496C9.20205 9.63086 9.45996 9.88828 9.45996 10.2046C9.45996 10.5209 9.20195 10.7783 8.88496 10.7783H7.9707V14.2593C7.9707 14.5679 7.70791 14.8188 7.38477 14.8188ZM12.5227 14.8112C12.2783 14.8112 12.0914 14.712 12.0351 14.5524L11.7449 13.7929L9.9582 13.7928L9.66787 14.5528C9.61172 14.7121 9.4249 14.8112 9.18057 14.8112C9.05204 14.8114 8.925 14.7838 8.80811 14.7304C8.64658 14.6559 8.49131 14.451 8.66924 13.8983L10.0708 10.2093C10.1695 9.92871 10.4694 9.63965 10.8511 9.63096C11.2338 9.63955 11.5337 9.92871 11.6326 10.2099L13.0336 13.8973C13.2119 14.4512 13.0566 14.6562 12.8951 14.7305C12.7782 14.7838 12.6512 14.8113 12.5227 14.8112C12.5227 14.8112 12.5226 14.8112 12.5227 14.8112ZM11.4368 12.755L10.8516 11.0924L10.2663 12.755H11.4368ZM13.9766 14.7334C13.6669 14.7334 13.415 14.4924 13.415 14.1963V10.2168C13.415 9.89365 13.6834 9.63086 14.0132 9.63086C14.343 9.63086 14.6113 9.89365 14.6113 10.2168V13.6592H15.8564C16.1661 13.6592 16.418 13.9002 16.418 14.1963C16.418 14.4924 16.1661 14.7334 15.8564 14.7334H13.9766ZM17.2318 14.8112C16.9087 14.8112 16.6459 14.5484 16.6459 14.2253V10.2168C16.6459 9.89365 16.9087 9.63086 17.2318 9.63086C17.555 9.63086 17.8178 9.89365 17.8178 10.2168V11.4762L19.4525 9.84141C19.5366 9.75732 19.6521 9.71104 19.7775 9.71104C19.9238 9.71104 20.0707 9.77412 20.1808 9.88408C20.2834 9.98662 20.3446 10.1186 20.353 10.2556C20.3615 10.3938 20.3155 10.5204 20.2237 10.6123L18.8885 11.9474L20.3308 13.8581C20.3773 13.9194 20.4113 13.9893 20.4306 14.0639C20.4499 14.1384 20.4542 14.216 20.4433 14.2922C20.4328 14.3684 20.4073 14.4419 20.3683 14.5082C20.3293 14.5745 20.2775 14.6324 20.2159 14.6786C20.1146 14.7556 19.9907 14.7972 19.8635 14.7969C19.7727 14.7973 19.6831 14.7765 19.6018 14.736C19.5205 14.6956 19.4498 14.6366 19.3954 14.564L18.0213 12.7433L17.818 12.9466V14.225C17.8178 14.3804 17.756 14.5294 17.6461 14.6393C17.5362 14.7492 17.3872 14.811 17.2318 14.8112Z" fill="#FFE812"/>
</g>
<defs>
<clipPath id="clip0_500_1656">
<rect width="25" height="25" fill="white" transform="translate(0.5 0.5)"/>
</clipPath>
</defs>
</svg>
