<svg width="37" height="37" viewBox="0 0 37 37" fill="none" xmlns="http://www.w3.org/2000/svg">
<path d="M24.75 8.33325C24.75 6.67565 24.0915 5.08594 22.9194 3.91383C21.7473 2.74173 20.1576 2.08325 18.5 2.08325C16.8424 2.08325 15.2527 2.74173 14.0806 3.91383C12.9085 5.08594 12.25 6.67565 12.25 8.33325C12.25 15.6249 9.125 17.7083 9.125 17.7083H27.875C27.875 17.7083 24.75 15.6249 24.75 8.33325Z" stroke="white" stroke-width="2" stroke-linecap="round" stroke-linejoin="round"/>
<path d="M20.3022 21.875C20.119 22.1907 19.8562 22.4528 19.5399 22.6349C19.2236 22.8171 18.8651 22.913 18.5001 22.913C18.1351 22.913 17.7765 22.8171 17.4603 22.6349C17.144 22.4528 16.8811 22.1907 16.698 21.875" stroke="white" stroke-width="2" stroke-linecap="round" stroke-linejoin="round"/>
<path d="M17.2719 31.4502H16.0268V27.002H17.2719V31.4502ZM18.473 29.7559H16.7543V28.7305H18.473V29.7559ZM17.2719 34.2285H12.6186V35.3076H11.393V33.3252H16.0316V32.7637H11.3783V31.8066H17.2719V34.2285ZM17.5307 35.8008H11.393V34.8193H17.5307V35.8008ZM12.6771 27.2754C13.1264 27.2754 13.5316 27.3617 13.893 27.5342C14.2576 27.7035 14.5424 27.9411 14.7475 28.2471C14.9558 28.5531 15.06 28.8997 15.06 29.2871C15.06 29.6712 14.9558 30.0179 14.7475 30.3271C14.5424 30.6331 14.2576 30.8724 13.893 31.0449C13.5316 31.2142 13.1264 31.2988 12.6771 31.2988C12.2279 31.2988 11.821 31.2126 11.4564 31.04C11.0919 30.8675 10.8038 30.6283 10.5922 30.3223C10.3839 30.0163 10.2797 29.6712 10.2797 29.2871C10.2797 28.8997 10.3839 28.5531 10.5922 28.2471C10.8005 27.9411 11.087 27.7035 11.4516 27.5342C11.8161 27.3617 12.2247 27.2754 12.6771 27.2754ZM12.6771 28.291C12.4493 28.2878 12.2458 28.3268 12.0668 28.4082C11.8878 28.4896 11.7478 28.6051 11.6469 28.7549C11.546 28.9046 11.4955 29.082 11.4955 29.2871C11.4955 29.4922 11.546 29.6729 11.6469 29.8291C11.7478 29.9821 11.8878 30.1009 12.0668 30.1855C12.2458 30.2702 12.4493 30.3125 12.6771 30.3125C12.905 30.3125 13.1068 30.2702 13.2826 30.1855C13.4584 30.1009 13.5967 29.9821 13.6977 29.8291C13.7986 29.6729 13.849 29.4922 13.849 29.2871C13.849 29.082 13.7986 28.9046 13.6977 28.7549C13.5967 28.6051 13.4584 28.4896 13.2826 28.4082C13.1068 28.3268 12.905 28.2878 12.6771 28.291ZM26.1002 32.29H24.8551V27.0215H26.1002V32.29ZM19.9137 30.9619C20.8837 30.9652 21.6682 30.9521 22.2672 30.9229C22.8661 30.8903 23.4716 30.8236 24.0836 30.7227L24.235 31.7236C23.5904 31.8213 22.9475 31.8896 22.3063 31.9287C21.665 31.9645 20.8674 31.9824 19.9137 31.9824H19.1324V30.9619H19.9137ZM23.2389 30.1953H20.358V31.5869H19.1324V29.2432H22.0084V28.5059H19.1227V27.5293H23.2389V30.1953ZM26.1002 35.8008H20.148V32.6758H26.1002V35.8008ZM21.3736 34.7998H24.8795V33.667H21.3736V34.7998Z" fill="white"/>
</svg>
