<svg width="37" height="37" viewBox="0 0 37 37" fill="none" xmlns="http://www.w3.org/2000/svg">
<g clip-path="url(#clip0_626_1161)">
<path d="M18.5 2.08325L21.7188 8.60409L28.9167 9.65617L23.7084 14.7291L24.9375 21.8958L18.5 18.5103L12.0625 21.8958L13.2917 14.7291L8.08337 9.65617L15.2813 8.60409L18.5 2.08325Z" stroke="white" stroke-width="2" stroke-linecap="round" stroke-linejoin="round"/>
<path d="M4.96934 28.6719H1.13144V27.6562H4.96934V28.6719ZM3.49473 31.9434H2.25449V29.707H3.49473V31.9434ZM5.70664 28.208C5.70013 28.7223 5.68548 29.1667 5.66269 29.541C5.64316 29.9121 5.59108 30.3369 5.50644 30.8154L4.27598 30.708C4.37038 30.2197 4.42897 29.7949 4.45176 29.4336C4.47454 29.069 4.48756 28.6605 4.49082 28.208V27.6562H5.70664V28.208ZM7.87949 33.6572H6.60019V27.002H7.87949V33.6572ZM8.95859 30.7617H7.37656V29.7217H8.95859V30.7617ZM8.15781 35.7471H1.91269V34.7412H8.15781V35.7471ZM3.16269 35.0586H1.91269V33.0664H3.16269V35.0586ZM0.604101 31.4648C1.70111 31.4616 2.69557 31.4421 3.5875 31.4062C4.47943 31.3704 5.32578 31.2956 6.12656 31.1816L6.18516 32.0801C5.3681 32.2298 4.50547 32.3307 3.59727 32.3828C2.68906 32.4316 1.72715 32.4561 0.711523 32.4561L0.604101 31.4648ZM16.6004 32.0361H15.3553V27.0215H16.6004V32.0361ZM16.6004 35.8008H10.6482V32.4414H16.6004V35.8008ZM11.8738 34.7998H15.3797V33.4277H11.8738V34.7998ZM12.3133 28.2031C12.3133 28.7663 12.2173 29.2936 12.0252 29.7852C11.8331 30.2734 11.5434 30.6999 11.1561 31.0645C10.7719 31.4258 10.2999 31.696 9.74004 31.875L9.1248 30.8936C9.60658 30.7438 10.0086 30.5322 10.3309 30.2588C10.6564 29.9821 10.8956 29.6663 11.0486 29.3115C11.2016 28.9567 11.2781 28.5872 11.2781 28.2031V27.3438H12.3133V28.2031ZM12.5721 28.2031C12.5721 28.571 12.6469 28.9225 12.7967 29.2578C12.9464 29.5898 13.1775 29.8877 13.49 30.1514C13.8025 30.4118 14.1899 30.6136 14.6521 30.7568L14.0467 31.7139C13.4965 31.5446 13.0327 31.2891 12.6551 30.9473C12.2807 30.6055 11.9992 30.2018 11.8104 29.7363C11.6215 29.2676 11.5271 28.7565 11.5271 28.2031V27.3438H12.5721V28.2031ZM27.1916 35.8984H25.927V27.002H27.1916V35.8984ZM24.5305 27.9395C24.5305 28.8932 24.4019 29.7591 24.1447 30.5371C23.8908 31.3118 23.4595 32.0247 22.8508 32.6758C22.2421 33.3236 21.4266 33.89 20.4045 34.375L19.7502 33.3789C20.6063 32.9753 21.2932 32.5212 21.8107 32.0166C22.3283 31.512 22.7043 30.9456 22.9387 30.3174C23.173 29.6891 23.2902 28.9697 23.2902 28.1592V27.9395H24.5305ZM23.8615 28.9209H20.2238V27.9395H23.8615V28.9209ZM34.9408 29.9805H32.6947V28.9844H34.9408V29.9805ZM30.6439 27.3877C31.0801 27.3844 31.4773 27.474 31.8354 27.6562C32.1934 27.8353 32.4766 28.0859 32.685 28.4082C32.8933 28.7305 32.9975 29.0918 32.9975 29.4922C32.9975 29.8991 32.8933 30.2653 32.685 30.5908C32.4766 30.9131 32.1934 31.1654 31.8354 31.3477C31.4805 31.5299 31.0834 31.6211 30.6439 31.6211C30.1915 31.6211 29.7846 31.5299 29.4232 31.3477C29.0652 31.1654 28.7836 30.9131 28.5785 30.5908C28.3767 30.2653 28.2758 29.8991 28.2758 29.4922C28.2758 29.0918 28.3767 28.7305 28.5785 28.4082C28.7836 28.0859 29.0668 27.8353 29.4281 27.6562C29.7895 27.474 30.1947 27.3844 30.6439 27.3877ZM30.6439 28.4277C30.4128 28.4245 30.2077 28.4652 30.0287 28.5498C29.8497 28.6344 29.7097 28.7581 29.6088 28.9209C29.5079 29.0804 29.4574 29.2708 29.4574 29.4922C29.4574 29.7103 29.5079 29.9023 29.6088 30.0684C29.7097 30.2311 29.8497 30.3581 30.0287 30.4492C30.2077 30.5371 30.4128 30.5811 30.6439 30.5811C30.8718 30.5811 31.0736 30.5371 31.2494 30.4492C31.4252 30.3581 31.5619 30.2311 31.6596 30.0684C31.7572 29.9023 31.8061 29.7103 31.8061 29.4922C31.8061 29.2741 31.7572 29.0837 31.6596 28.9209C31.5619 28.7581 31.4252 28.6344 31.2494 28.5498C31.0736 28.4652 30.8718 28.4245 30.6439 28.4277ZM35.6537 31.792H34.4135V27.002H35.6537V31.792ZM30.9564 33.0322H34.4135V32.1777H35.6537V35.8008H29.726V32.1777H30.9564V33.0322ZM34.4135 34.7949V33.9941H30.9564V34.7949H34.4135Z" fill="white"/>
</g>
<defs>
<clipPath id="clip0_626_1161">
<rect width="37" height="37" fill="white"/>
</clipPath>
</defs>
</svg>
