<svg width="37" height="37" viewBox="0 0 37 37" fill="none" xmlns="http://www.w3.org/2000/svg">
<path d="M26.8334 21.875V19.7917C26.8334 18.6866 26.3944 17.6268 25.613 16.8454C24.8316 16.064 23.7718 15.625 22.6667 15.625H14.3334C13.2283 15.625 12.1685 16.064 11.3871 16.8454C10.6057 17.6268 10.1667 18.6866 10.1667 19.7917V21.875" stroke="white" stroke-width="2" stroke-linecap="round" stroke-linejoin="round"/>
<path d="M18.4999 11.4583C20.8011 11.4583 22.6666 9.59285 22.6666 7.29167C22.6666 4.99048 20.8011 3.125 18.4999 3.125C16.1987 3.125 14.3333 4.99048 14.3333 7.29167C14.3333 9.59285 16.1987 11.4583 18.4999 11.4583Z" stroke="white" stroke-width="2" stroke-linecap="round" stroke-linejoin="round"/>
<path d="M12.6086 35.8984H11.4074V27.002H12.6086V35.8984ZM11.7346 31.4551H10.2258V30.4443H11.7346V31.4551ZM10.5773 35.4688H9.41035V27.1631H10.5773V35.4688ZM6.54902 33.1299H5.30391V27.998H6.54902V33.1299ZM5.89961 32.6514C6.41393 32.6514 6.91523 32.6318 7.40352 32.5928C7.8918 32.5537 8.39147 32.487 8.90254 32.3926L9.03438 33.4668C8.47448 33.5612 7.93737 33.6296 7.42305 33.6719C6.91198 33.7109 6.40417 33.7305 5.89961 33.7305H5.30391V32.6514H5.89961ZM22.0719 30.1855H20.3629V29.1748H22.0719V30.1855ZM22.9898 32.29H21.7496V27.002H22.9898V32.29ZM19.9527 32.4854C20.5875 32.4854 21.1344 32.5537 21.5934 32.6904C22.0523 32.8239 22.4039 33.0192 22.648 33.2764C22.8954 33.5335 23.0191 33.8411 23.0191 34.1992C23.0191 34.554 22.8954 34.8584 22.648 35.1123C22.4039 35.3695 22.0523 35.5664 21.5934 35.7031C21.1344 35.8398 20.5875 35.9098 19.9527 35.9131C19.3245 35.9098 18.7809 35.8398 18.3219 35.7031C17.8661 35.5664 17.5146 35.3695 17.2672 35.1123C17.023 34.8584 16.901 34.554 16.901 34.1992C16.901 33.8411 17.023 33.5335 17.2672 33.2764C17.5146 33.0192 17.8661 32.8239 18.3219 32.6904C18.7809 32.5537 19.3245 32.4854 19.9527 32.4854ZM19.9527 33.4326C19.5621 33.4326 19.2317 33.4603 18.9615 33.5156C18.6913 33.571 18.4863 33.6556 18.3463 33.7695C18.2063 33.8835 18.1363 34.0267 18.1363 34.1992C18.1363 34.362 18.2063 34.502 18.3463 34.6191C18.4863 34.7331 18.6913 34.8193 18.9615 34.8779C19.2317 34.9333 19.5621 34.9609 19.9527 34.9609C20.3531 34.9609 20.6884 34.9333 20.9586 34.8779C21.2288 34.8193 21.4322 34.7331 21.5689 34.6191C21.7057 34.502 21.774 34.362 21.774 34.1992C21.774 34.0267 21.7057 33.8835 21.5689 33.7695C21.4322 33.6556 21.2288 33.571 20.9586 33.5156C20.6884 33.4603 20.3531 33.4326 19.9527 33.4326ZM18.6002 28.4863C18.6002 29.0625 18.5074 29.6029 18.3219 30.1074C18.1363 30.612 17.8548 31.0563 17.4771 31.4404C17.1028 31.8213 16.6422 32.1061 16.0953 32.2949L15.4459 31.3037C15.9212 31.1442 16.3183 30.918 16.6373 30.625C16.9596 30.3288 17.1972 29.9967 17.3502 29.6289C17.5064 29.2578 17.5846 28.877 17.5846 28.4863V27.9004H18.6002V28.4863ZM18.8541 28.4766C18.8541 28.8379 18.9273 29.1878 19.0738 29.5264C19.2236 29.8649 19.4514 30.1709 19.7574 30.4443C20.0634 30.7178 20.4443 30.931 20.9 31.084L20.2848 32.0605C19.7477 31.8848 19.2952 31.6178 18.9273 31.2598C18.5628 30.8984 18.291 30.4785 18.1119 30C17.9329 29.5215 17.8434 29.0137 17.8434 28.4766V27.9004H18.8541V28.4766ZM20.6266 28.5498H15.8023V27.5439H20.6266V28.5498ZM32.0721 34.8633H23.9471V33.8574H32.0721V34.8633ZM28.6053 34.1064H27.3797V31.9287H28.6053V34.1064ZM26.0564 28.96H29.9285V27.5732H31.1688V32.207H24.8064V27.5732H26.0564V28.96ZM29.9285 31.2109V29.9463H26.0564V31.2109H29.9285Z" fill="white"/>
</svg>
