<svg width="37" height="37" viewBox="0 0 37 37" fill="none" xmlns="http://www.w3.org/2000/svg">
<path d="M9.125 9.37492L18.5 2.08325L27.875 9.37492V20.8333C27.875 21.3858 27.6555 21.9157 27.2648 22.3064C26.8741 22.6971 26.3442 22.9166 25.7917 22.9166H11.2083C10.6558 22.9166 10.1259 22.6971 9.73519 22.3064C9.34449 21.9157 9.125 21.3858 9.125 20.8333V9.37492Z" stroke="white" stroke-width="2" stroke-linecap="round" stroke-linejoin="round"/>
<path d="M15.375 22.9167V12.5H21.625V22.9167" stroke="white" stroke-width="2" stroke-linecap="round" stroke-linejoin="round"/>
<path d="M14.0053 33.667H10.4701V27.9297H14.0053V33.667ZM11.6371 32.6855H12.8432V28.9111H11.6371V32.6855ZM17.9262 35.8984H16.7299V27.002H17.9262V35.8984ZM15.4018 31.2402H13.3852V30.249H15.4018V31.2402ZM16.0756 35.4883H14.8988V27.1387H16.0756V35.4883ZM26.1002 33.4082H24.8551V27.0215H26.1002V33.4082ZM26.3443 35.7471H20.148V34.7412H26.3443V35.7471ZM21.4078 35.1514H20.148V32.7686H21.4078V35.1514ZM21.232 27.583C21.6845 27.583 22.0963 27.679 22.4674 27.8711C22.8417 28.0599 23.1347 28.3268 23.3463 28.6719C23.5579 29.0137 23.6637 29.3962 23.6637 29.8193C23.6637 30.2555 23.5579 30.6445 23.3463 30.9863C23.1347 31.3281 22.8417 31.5967 22.4674 31.792C22.0963 31.984 21.6845 32.0801 21.232 32.0801C20.7796 32.0801 20.3678 31.984 19.9967 31.792C19.6288 31.5967 19.3375 31.3281 19.1227 30.9863C18.9078 30.6445 18.8004 30.2555 18.8004 29.8193C18.8004 29.3962 18.9078 29.0137 19.1227 28.6719C19.3375 28.3268 19.6288 28.0599 19.9967 27.8711C20.3678 27.679 20.7796 27.583 21.232 27.583ZM21.232 28.667C21.0009 28.6637 20.7926 28.7093 20.607 28.8037C20.4247 28.8949 20.2799 29.0283 20.1725 29.2041C20.0683 29.3799 20.0162 29.585 20.0162 29.8193C20.0162 30.0602 20.0683 30.2702 20.1725 30.4492C20.2799 30.625 20.4247 30.7601 20.607 30.8545C20.7926 30.9456 21.0009 30.9912 21.232 30.9912C21.4599 30.9912 21.6633 30.9456 21.8424 30.8545C22.0247 30.7601 22.1679 30.625 22.2721 30.4492C22.3762 30.2702 22.4283 30.0602 22.4283 29.8193C22.4283 29.585 22.3762 29.3799 22.2721 29.2041C22.1679 29.0283 22.0247 28.8949 21.8424 28.8037C21.6633 28.7093 21.4599 28.6637 21.232 28.667Z" fill="white"/>
</svg>
