<svg width="25" height="25" viewBox="0 0 25 25" fill="none" xmlns="http://www.w3.org/2000/svg">
<path d="M23.9863 11.7485L0.646409 0.0465208C0.551543 -0.000912237 0.442726 -0.0120729 0.33949 0.0130387C0.224912 0.041364 0.126227 0.113936 0.0650416 0.214866C0.00385647 0.315795 -0.0148427 0.436857 0.0130387 0.551543L2.41817 10.3786C2.45444 10.5264 2.56326 10.6464 2.70835 10.6938L6.82944 12.1085L2.71114 13.5231C2.56605 13.5733 2.45724 13.6905 2.42375 13.8384L0.0130387 23.6793C-0.0120729 23.7826 -0.000912084 23.8914 0.046521 23.9835C0.155338 24.2039 0.423195 24.2932 0.646409 24.1844L23.9863 12.5493C24.0727 12.5075 24.1425 12.4349 24.1871 12.3512C24.296 12.128 24.2067 11.8601 23.9863 11.7485ZM2.76415 20.8836L4.16761 15.147L12.4042 12.3205C12.4684 12.2982 12.5214 12.248 12.5437 12.181C12.5828 12.0638 12.5214 11.9383 12.4042 11.8964L4.16761 9.07275L2.76974 3.35846L20.2921 12.1447L2.76415 20.8836V20.8836Z" fill="#3C6EAF"/>
</svg>
