<svg width="25" height="25" viewBox="0 0 25 25" fill="none" xmlns="http://www.w3.org/2000/svg">
<path d="M18.75 8.33334C20.4759 8.33334 21.875 6.93423 21.875 5.20834C21.875 3.48245 20.4759 2.08334 18.75 2.08334C17.0241 2.08334 15.625 3.48245 15.625 5.20834C15.625 6.93423 17.0241 8.33334 18.75 8.33334Z" stroke="white" stroke-width="2" stroke-linecap="round" stroke-linejoin="round"/>
<path d="M6.25 15.625C7.97589 15.625 9.375 14.2259 9.375 12.5C9.375 10.7741 7.97589 9.375 6.25 9.375C4.52411 9.375 3.125 10.7741 3.125 12.5C3.125 14.2259 4.52411 15.625 6.25 15.625Z" stroke="white" stroke-width="2" stroke-linecap="round" stroke-linejoin="round"/>
<path d="M18.75 22.9167C20.4759 22.9167 21.875 21.5175 21.875 19.7917C21.875 18.0658 20.4759 16.6667 18.75 16.6667C17.0241 16.6667 15.625 18.0658 15.625 19.7917C15.625 21.5175 17.0241 22.9167 18.75 22.9167Z" stroke="white" stroke-width="2" stroke-linecap="round" stroke-linejoin="round"/>
<path d="M8.94791 14.0729L16.0625 18.2187" stroke="white" stroke-width="2" stroke-linecap="round" stroke-linejoin="round"/>
<path d="M16.0521 6.78125L8.94791 10.9271" stroke="white" stroke-width="2" stroke-linecap="round" stroke-linejoin="round"/>
</svg>
